<svg width="34" height="34" viewBox="0 0 34 34" fill="none" xmlns="http://www.w3.org/2000/svg">
<path d="M31.1667 4.25H2.83333C1.28917 4.30667 0.0566667 5.53917 0 7.08333V26.9167C0.0566667 28.4608 1.28917 29.6933 2.83333 29.75H31.1667C32.7108 29.6933 33.9433 28.4608 34 26.9167V7.08333C33.9739 6.34019 33.667 5.63457 33.1412 5.10876C32.6154 4.58296 31.9098 4.27607 31.1667 4.25ZM31.1667 26.9167H2.83333V7.08333H31.1667V26.9167ZM19.8333 24.0833V22.3125C19.8333 19.9608 15.1017 18.7708 12.75 18.7708C10.3983 18.7708 5.66667 19.9608 5.66667 22.3125V24.0833H19.8333ZM12.75 9.91667C11.8107 9.91667 10.9099 10.2898 10.2457 10.954C9.58147 11.6182 9.20833 12.519 9.20833 13.4583C9.20833 13.9234 9.29994 14.384 9.47793 14.8137C9.65591 15.2434 9.91679 15.6338 10.2457 15.9627C10.9099 16.6269 11.8107 17 12.75 17C13.2151 17 13.6756 16.9084 14.1053 16.7304C14.535 16.5524 14.9255 16.2915 15.2543 15.9627C15.5832 15.6338 15.8441 15.2434 16.0221 14.8137C16.2001 14.384 16.2917 13.9234 16.2917 13.4583C16.2917 12.9932 16.2001 12.5327 16.0221 12.103C15.8441 11.6733 15.5832 11.2829 15.2543 10.954C14.9255 10.6251 14.535 10.3642 14.1053 10.1863C13.6756 10.0083 13.2151 9.91667 12.75 9.91667ZM19.8333 9.91667V11.3333H28.3333V9.91667H19.8333ZM19.8333 12.75V14.1667H28.3333V12.75H19.8333ZM19.8333 15.5833V17H25.5V15.5833H19.8333Z" fill="#DED27C"/>
</svg>
